<?xml version="1.0" encoding="UTF-8"?>
<svg width="32" height="32" version="1.1" viewBox="0 0 32 32" xmlns="http://www.w3.org/2000/svg">
 <path d="m5.1012 23.432h0.35406l5.759 8.131h0.0236v-8.131h0.23604v8.4259h-0.35405l-5.759-8.131h-0.023604v8.131h-0.23604zm10.079 2.2185c1.7702 0 2.726 1.5226 2.726 3.1746 0 1.6641-0.95583 3.1746-2.7379 3.1746-1.7702 0-2.726-1.5105-2.726-3.1746 1.25e-4 -1.652 0.95596-3.1746 2.7379-3.1746zm0 6.1131c1.6167 0 2.4901-1.4044 2.4901-2.9384 0-1.5105-0.87322-2.9384-2.4901-2.9384-1.6403 0-2.5019 1.4279-2.5019 2.9384 1.26e-4 1.534 0.86154 2.9384 2.5019 2.9384zm3.942 0.09442h-0.23604v-6.0658h0.23604v1.4988h0.0236c0.22424-0.89707 0.93235-1.6875 2.3839-1.6405v0.23616c-1.6641-0.08261-2.4075 1.2156-2.4075 2.5373zm7.541-8.4261h0.23604v8.4259h-0.23604v-1.6993h-0.0236c-0.30673 1.062-1.1919 1.8411-2.4309 1.8411-1.6049 0-2.5845-1.3335-2.5845-3.1628 0-1.6993 0.90862-3.1864 2.5845-3.1864 1.2863 0 2.1477 0.74352 2.4309 1.8411h0.0236zm-2.4547 2.4547c-1.6639 0-2.3485 1.5459-2.3485 2.9502 0 1.5579 0.77893 2.9267 2.3485 2.9267 1.5577 0 2.4547-1.3571 2.4547-2.9267 0-1.8764-0.97956-2.9502-2.4547-2.9502z" fill="#88c0d0" stroke-width=".12555"/>
 <g transform="matrix(.13819 0 0 .13819 -45.357 -23.847)" fill="#2e3440">
  <path d="m477.84 331.15-65.088-83.316v-23.115l72.135 93.254h38.767v-131.32h-65.197l-14.094-14.097h93.387v158.59z"/>
  <path d="m410.16 172.56 65.092 83.31v23.115l-72.139-93.252h-38.763v131.32h65.195l14.1 14.099h-93.393v-158.59z"/>
 </g>
</svg>
